PathFileType	4	(X/Y/Z)	/Users/itak/Documents/Research/Walk-IL/dataset/trc/00119_00007.trc
DataRate	CameraRate	NumFrames	NumMarkers	Units	OrigDataRate	OrigDataStartFrame	OrigNumFrames
100.000000	100.000000	4	53	mm	100.000000	89	716
Frame#	Time	RPSI			LPSI			L3			STRN			T10			C7			CLAV			RBAK			LBAK			LSHO			LUPA			LAEL			LAOL			LWTS			LWPS			LFRA			LIFD			LHPS			LHTS			RSHO			RUPA			RAEL			RAOL			RWTS			RWPS			RFRA			RIFD			RHTS			RHPS			RBHD			LFHD			RFHD			LBHD			LHIP			RHIP			RASI			LASI			LKNE			LTHI			LANK			LTIP			LTOE			LMT1			LMT5			LHEE			RKNE			RTHI			RANK			RTIP			RTOE			RMT1			RMT5			RHEE			
		X1	Y1	Z1	X2	Y2	Z2	X3	Y3	Z3	X4	Y4	Z4	X5	Y5	Z5	X6	Y6	Z6	X7	Y7	Z7	X8	Y8	Z8	X9	Y9	Z9	X10	Y10	Z10	X11	Y11	Z11	X12	Y12	Z12	X13	Y13	Z13	X14	Y14	Z14	X15	Y15	Z15	X16	Y16	Z16	X17	Y17	Z17	X18	Y18	Z18	X19	Y19	Z19	X20	Y20	Z20	X21	Y21	Z21	X22	Y22	Z22	X23	Y23	Z23	X24	Y24	Z24	X25	Y25	Z25	X26	Y26	Z26	X27	Y27	Z27	X28	Y28	Z28	X29	Y29	Z29	X30	Y30	Z30	X31	Y31	Z31	X32	Y32	Z32	X33	Y33	Z33	X34	Y34	Z34	X35	Y35	Z35	X36	Y36	Z36	X37	Y37	Z37	X38	Y38	Z38	X39	Y39	Z39	X40	Y40	Z40	X41	Y41	Z41	X42	Y42	Z42	X43	Y43	Z43	X44	Y44	Z44	X45	Y45	Z45	X46	Y46	Z46	X47	Y47	Z47	X48	Y48	Z48	X49	Y49	Z49	X50	Y50	Z50	X51	Y51	Z51	X52	Y52	Z52	X53	Y53	Z53	

90	0.89	-16.78852462768555	1129.467651367188	1258.215209960938	-24.45676231384277	1128.58935546875	1123.415405273438	-25.15685653686523	1164.015258789062	1189.907104492188	198.3309631347656	1353.122680664062	1184.307495117188	-54.75102233886719	1317.740844726562	1192.633422851562	-4.50534200668335	1608.287841796875	1180.702026367188	170.3619079589844	1489.787231445312	1183.817626953125	-66.76400756835938	1426.666137695312	1267.862060546875	-14.52598094940186	1589.185668945312	1078.856323242188	69.71495819091797	1569.068969726562	1008.418823242188	41.98900604248047	1438.909545898438	938.808837890625	49.15034484863281	1218.693725585938	917.6853637695312	-19.75051116943359	1209.092041015625	971.6088256835938	146.4305267333984	962.1596069335938	969.7367553710938	65.85090637207031	935.2249145507812	940.5256958007812	64.46340179443359	1102.095458984375	916.253662109375	158.7733917236328	770.5204467773438	998.4523315429688	95.01055145263672	860.3529052734375	942.955322265625	162.1981048583984	872.3694458007812	961.4970703125	54.56099319458008	1582.954833984375	1361.59228515625	34.8848762512207	1509.770141601562	1424.569580078125	10.36333560943604	1215.01416015625	1441.664672851562	1.50080680847168	1215.311157226562	1346.524169921875	144.8696136474609	967.591552734375	1419.584106445312	69.96179962158203	951.9959716796875	1451.382568359375	31.56008338928223	1140.457885742188	1455.273559570312	165.3604888916016	774.0388793945312	1397.129272460938	172.3299407958984	858.924560546875	1423.170776367188	103.03173828125	851.209716796875	1450.045288085938	61.51766204833984	1774.094116210938	1271.006713867188	176.7857360839844	1838.622924804688	1091.448608398438	215.0581207275391	1848.654296875	1216.285034179688	14.30257225036621	1767.701293945312	1144.381591796875	63.56248474121094	1036.769653320312	1009.633728027344	111.3674392700195	1030.187866210938	1371.911010742188	193.5041351318359	1098.245239257812	1315.962524414062	170.5121307373047	1099.367065429688	1050.94970703125	164.8101348876953	531.969970703125	1051.703247070312	120.9861297607422	677.9179077148438	1023.225463867188	-59.47846984863281	60.03186798095703	1042.368286132812	11.86865520477295	304.3435363769531	1020.171936035156	166.7078857421875	42.15675354003906	1092.741333007812	88.86508941650391	46.26981735229492	1129.006469726562	62.28372192382812	43.49843597412109	1016.466125488281	-128.4174957275391	68.38625335693359	1105.093627929688	89.80883026123047	537.484130859375	1325.693481445312	126.8710021972656	815.5673828125	1360.041259765625	-51.17202758789062	31.29524230957031	1295.882202148438	57.29916000366211	403.479248046875	1335.154296875	184.0452423095703	49.93549346923828	1241.09228515625	122.2749710083008	44.17943572998047	1199.647216796875	85.02191925048828	43.27479934692383	1316.47509765625	-107.8770141601562	34.88134002685547	1245.854736328125	
91	0.9	-15.86795997619629	1129.416015625	1258.130981445312	-24.38070678710938	1128.426025390625	1123.401611328125	-24.56954956054688	1164.243774414062	1189.979370117188	199.8460845947266	1352.488159179688	1183.569702148438	-53.35245895385742	1318.136840820312	1192.972412109375	-1.721044898033142	1608.432006835938	1181.08837890625	172.6234588623047	1489.300659179688	1183.322509765625	-64.37662506103516	1427.02734375	1268.40185546875	-12.30913925170898	1589.484497070312	1079.242797851562	71.56096649169922	1569.037231445312	1008.455871582031	43.12335968017578	1438.97998046875	938.9363403320312	49.59712219238281	1218.724365234375	917.8052978515625	-19.04076194763184	1209.251708984375	972.1184692382812	146.7642669677734	962.053955078125	969.3026123046875	65.96010589599609	935.2212524414062	940.5343627929688	64.6661376953125	1102.109497070312	916.296875	158.9784851074219	770.4232177734375	998.1064453125	94.99472045898438	860.274658203125	942.8778686523438	162.3066253662109	872.2280883789062	961.0514526367188	58.05096054077148	1582.706176757812	1361.6689453125	38.43243408203125	1509.593139648438	1424.742065429688	12.74149513244629	1215.002685546875	1442.293701171875	3.412209987640381	1215.23486328125	1347.212646484375	146.4236145019531	967.14013671875	1419.771240234375	71.63298034667969	951.8182373046875	1451.928833007812	33.80837249755859	1140.367797851562	1455.901733398438	166.1695861816406	773.5016479492188	1397.421264648438	173.560546875	858.3969116210938	1423.374755859375	104.1047668457031	850.6461181640625	1450.306762695312	65.05245971679688	1773.945190429688	1271.027221679688	179.4394836425781	1837.948852539062	1090.712524414062	218.3773498535156	1848.230224609375	1215.308227539062	17.13562202453613	1767.29248046875	1144.678344726562	63.52870178222656	1036.36865234375	1009.472106933594	112.3600997924805	1030.158081054688	1371.4775390625	194.6294097900391	1097.828735351562	1315.302368164062	170.4233551025391	1099.028442382812	1050.43896484375	173.6997833251953	532.8294067382812	1052.637329101562	127.6344757080078	678.36474609375	1024.145141601562	-58.24428558349609	63.56597518920898	1042.940551757812	17.29455757141113	306.8883972167969	1021.20703125	167.4553985595703	42.28711700439453	1091.66552734375	90.26256561279297	47.04916000366211	1128.581298828125	62.806396484375	44.5713996887207	1016.494812011719	-126.4282684326172	73.058349609375	1106.102783203125	90.00761413574219	537.3853759765625	1325.9423828125	127.5711135864258	815.5037231445312	1359.886352539062	-51.27137756347656	31.19540214538574	1295.89697265625	57.35586929321289	403.4165954589844	1335.401123046875	184.0022125244141	50.51552963256836	1241.469360351562	122.2419891357422	44.63181304931641	1199.826538085938	84.91865539550781	43.22823333740234	1316.59619140625	-107.934326171875	34.82653045654297	1245.920654296875	
92	0.91	-14.85038757324219	1129.376098632812	1258.0224609375	-24.18942832946777	1128.270629882812	1123.378540039062	-23.87402534484863	1164.506958007812	1190.02685546875	201.4642181396484	1351.890502929688	1182.738525390625	-51.85316848754883	1318.547241210938	1193.310913085938	1.130407214164734	1608.584228515625	1181.43310546875	174.9620666503906	1488.840209960938	1182.72119140625	-61.8740234375	1427.400268554688	1268.928100585938	-10.09120941162109	1589.7880859375	1079.58544921875	73.40008544921875	1569.043823242188	1008.422058105469	44.24024963378906	1439.083251953125	939.012451171875	50.01145553588867	1218.790405273438	917.9053955078125	-18.31118774414062	1209.446411132812	972.6718139648438	147.0883941650391	961.970703125	968.7874145507812	66.03768920898438	935.2621459960938	940.4949951171875	64.84860992431641	1102.166870117188	916.3150634765625	159.1702270507812	770.3509521484375	997.6790771484375	94.94252777099609	860.2360229492188	942.7391357421875	162.4007263183594	872.1116943359375	960.5205078125	61.68682098388672	1582.46630859375	1361.6748046875	42.18549728393555	1509.439453125	1424.88818359375	15.2529764175415	1215.02490234375	1442.896484375	5.424610137939453	1215.184204101562	1347.875366210938	148.0982208251953	966.715576171875	1419.912109375	73.43659973144531	951.673095703125	1452.45703125	36.19508743286133	1140.313598632812	1456.50830078125	167.0556945800781	772.9849243164062	1397.676879882812	174.8952941894531	857.8939208984375	1423.518798828125	105.2416534423828	850.0945434570312	1450.50244140625	68.68167114257812	1773.822509765625	1270.972290039062	182.1576385498047	1837.293212890625	1089.888427734375	221.7723083496094	1847.807373046875	1214.226806640625	20.04670333862305	1766.927001953125	1144.898559570312	63.62099456787109	1036.021240234375	1009.285766601562	113.460075378418	1030.132934570312	1370.999877929688	195.8556823730469	1097.435913085938	1314.583374023438	170.4630584716797	1098.73779296875	1049.864501953125	182.7072906494141	533.9279174804688	1053.458251953125	134.3697204589844	679.0006713867188	1024.912963867188	-56.57391738891602	67.3397216796875	1043.545043945312	23.03156661987305	309.6719970703125	1022.248657226562	168.65673828125	42.5586051940918	1090.3603515625	92.18682861328125	47.97820663452148	1128.046997070312	63.68552780151367	45.91572189331055	1016.4130859375	-123.899787902832	77.91962432861328	1107.219604492188	90.14577484130859	537.29833984375	1326.182495117188	128.2935333251953	815.4554443359375	1359.682006835938	-51.37237167358398	31.10354614257812	1295.908447265625	57.334228515625	403.3827209472656	1335.629638671875	183.9702758789062	51.15385818481445	1241.931396484375	122.2321548461914	45.11857604980469	1200.054809570312	84.80832672119141	43.17394256591797	1316.75341796875	-107.9935913085938	34.77755355834961	1245.97509765625	
93	0.92	-13.73230838775635	1129.349365234375	1257.879028320312	-23.85495185852051	1128.123413085938	1123.335083007812	-23.06522560119629	1164.785400390625	1190.034790039062	203.1981964111328	1351.336791992188	1181.826904296875	-50.2281608581543	1318.95654296875	1193.646484375	4.047486305236816	1608.741943359375	1181.731201171875	177.3797302246094	1488.411987304688	1182.017333984375	-59.25656509399414	1427.7861328125	1269.443237304688	-7.864830493927002	1590.094604492188	1079.883422851562	75.23918914794922	1569.08349609375	1008.31298828125	45.34129333496094	1439.213134765625	939.0413208007812	50.3739128112793	1218.889770507812	917.99169921875	-17.56531715393066	1209.673095703125	973.2844848632812	147.3997192382812	961.9166259765625	968.1734008789062	66.08203887939453	935.34814453125	940.405029296875	64.99283599853516	1102.265991210938	916.307373046875	159.3682861328125	770.3038330078125	997.1278686523438	94.86158752441406	860.2431640625	942.5208740234375	162.4875030517578	872.0267944335938	959.8724975585938	65.46558380126953	1582.24658203125	1361.606323242188	46.1502685546875	1509.32373046875	1425.021240234375	17.90019226074219	1215.091064453125	1443.467895507812	7.53969669342041	1215.170288085938	1348.5078125	149.9035339355469	966.3336791992188	1419.999267578125	75.38263702392578	951.5708618164062	1452.959350585938	38.71326065063477	1140.305541992188	1457.078857421875	168.0352783203125	772.5049438476562	1397.87939453125	176.3454132080078	857.4323120117188	1423.5908203125	106.4547348022461	849.5725708007812	1450.61669921875	72.39886474609375	1773.724853515625	1270.834350585938	184.9378356933594	1836.6591796875	1088.97021484375	225.2366943359375	1847.385986328125	1213.037109375	23.03155708312988	1766.605102539062	1145.038818359375	63.86830520629883	1035.726928710938	1009.066345214844	114.6586990356445	1030.108642578125	1370.488037109375	197.1808013916016	1097.06591796875	1313.827514648438	170.6692504882812	1098.4931640625	1049.243408203125	191.7426910400391	535.2442016601562	1054.117309570312	141.0800933837891	679.7938842773438	1025.484741210938	-54.33203887939453	71.24838256835938	1044.173828125	29.0694580078125	312.6151123046875	1023.278747558594	170.4671325683594	43.02145767211914	1088.837646484375	94.77267456054688	49.06311416625977	1127.39111328125	65.07840728759766	47.56427764892578	1016.195556640625	-120.7302932739258	82.80988311767578	1108.4296875	90.22554779052734	537.2237548828125	1326.419555664062	129.0369262695312	815.4219360351562	1359.43310546875	-51.46990203857422	31.02705192565918	1295.920532226562	57.23615646362305	403.3781433105469	1335.839599609375	183.9471435546875	51.832275390625	1242.481811523438	122.2483901977539	45.62882995605469	1200.337768554688	84.69305419921875	43.10822296142578	1316.953857421875	-108.0557861328125	34.73490142822266	1246.0107421875	
